<svg width="40" height="60" viewBox="0 0 40 60" fill="none" xmlns="http://www.w3.org/2000/svg">
<path fill-rule="evenodd" clip-rule="evenodd" d="M0.287017 4.8911C0.302844 2.17404 2.51829 -0.0157417 5.23535 8.52553e-05L35.1089 0.174099C37.826 0.189926 40.0157 2.40537 39.9999 5.12243L39.713 54.3809C39.6972 57.098 37.4817 59.2878 34.7646 59.2719L4.8911 59.0979C2.17404 59.0821 -0.0157417 56.8667 8.52555e-05 54.1496L0.287017 4.8911ZM12.751 5.71819C12.7541 5.17477 13.1972 4.73682 13.7406 4.73998L27.0114 4.81728C27.5548 4.82045 27.9928 5.26354 27.9896 5.80695L27.9738 8.52938C27.9706 9.0728 27.5275 9.51075 26.9841 9.50759L13.7133 9.43029C13.1699 9.42712 12.7319 8.98403 12.7351 8.44062L12.751 5.71819ZM20.8311 23.5023L8.93213 35.2634L10.3155 36.663L22.2145 24.9019L20.8311 23.5023ZM25.2507 27.9124L13.3517 39.6736L14.7351 41.0732L26.6341 29.312L25.2507 27.9124ZM29.4128 32.0996L17.5138 43.8608L18.8972 45.2604L30.7962 33.4992L29.4128 32.0996Z" fill="#596363"/>
</svg>
