<svg width="70" height="70" viewBox="0 0 70 70" fill="none" xmlns="http://www.w3.org/2000/svg">
<path d="M65.5651 70H4.37483C3.19108 70 2.16669 69.5671 1.30165 68.7012C0.43661 67.8353 0.00408936 66.8099 0.00408936 65.625V4.375C0.00408936 3.1901 0.43661 2.16471 1.30165 1.29883C2.16669 0.432943 3.19108 0 4.37483 0H65.5651C66.7489 0 67.7733 0.42155 68.6383 1.26465C69.5034 2.10775 69.9359 3.14453 69.9359 4.375V65.625C69.9359 66.8555 69.5034 67.8923 68.6383 68.7354C67.7733 69.5785 66.7489 70 65.5651 70ZM19.6724 8.75C16.6675 8.75 14.0952 9.82096 11.9553 11.9629C9.81548 14.1048 8.74556 16.6797 8.74556 19.6875C8.74556 22.6953 9.81548 25.2702 11.9553 27.4121C14.0952 29.554 16.6675 30.625 19.6724 30.625C22.6773 30.625 25.2496 29.554 27.3895 27.4121C29.5293 25.2702 30.5992 22.6953 30.5992 19.6875C30.5992 16.6797 29.5293 14.1048 27.3895 11.9629C25.2496 9.82096 22.6773 8.75 19.6724 8.75ZM19.6724 39.375C16.6675 39.375 14.0952 40.446 11.9553 42.5879C9.81548 44.7298 8.74556 47.3047 8.74556 50.3125C8.74556 53.3203 9.81548 55.8952 11.9553 58.0371C14.0952 60.179 16.6675 61.25 19.6724 61.25C22.6773 61.25 25.2496 60.179 27.3895 58.0371C29.5293 55.8952 30.5992 53.3203 30.5992 50.3125C30.5992 47.3047 29.5293 44.7298 27.3895 42.5879C25.2496 40.446 22.6773 39.375 19.6724 39.375ZM50.2676 8.75C47.2627 8.75 44.6903 9.82096 42.5505 11.9629C40.4106 14.1048 39.3407 16.6797 39.3407 19.6875C39.3407 22.6953 40.4106 25.2702 42.5505 27.4121C44.6903 29.554 47.2627 30.625 50.2676 30.625C53.2724 30.625 55.8448 29.554 57.9846 27.4121C60.1245 25.2702 61.1944 22.6953 61.1944 19.6875C61.1944 16.6797 60.1245 14.1048 57.9846 11.9629C55.8448 9.82096 53.2724 8.75 50.2676 8.75ZM50.2676 39.375C47.2627 39.375 44.6903 40.446 42.5505 42.5879C40.4106 44.7298 39.3407 47.3047 39.3407 50.3125C39.3407 53.3203 40.4106 55.8952 42.5505 58.0371C44.6903 60.179 47.2627 61.25 50.2676 61.25C53.2724 61.25 55.8448 60.179 57.9846 58.0371C60.1245 55.8952 61.1944 53.3203 61.1944 50.3125C61.1944 47.3047 60.1245 44.7298 57.9846 42.5879C55.8448 40.446 53.2724 39.375 50.2676 39.375ZM50.2676 56.875C48.4464 56.875 46.8985 56.237 45.6237 54.9609C44.3489 53.6849 43.7115 52.1354 43.7115 50.3125C43.7115 48.4896 44.3489 46.9401 45.6237 45.6641C46.8985 44.388 48.4464 43.75 50.2676 43.75C52.0887 43.75 53.6367 44.388 54.9115 45.6641C56.1863 46.9401 56.8237 48.4896 56.8237 50.3125C56.8237 52.1354 56.1863 53.6849 54.9115 54.9609C53.6367 56.237 52.0887 56.875 50.2676 56.875ZM50.2676 26.25C48.4464 26.25 46.8985 25.612 45.6237 24.3359C44.3489 23.0599 43.7115 21.5104 43.7115 19.6875C43.7115 17.8646 44.3489 16.3151 45.6237 15.0391C46.8985 13.763 48.4464 13.125 50.2676 13.125C52.0887 13.125 53.6367 13.763 54.9115 15.0391C56.1863 16.3151 56.8237 17.8646 56.8237 19.6875C56.8237 21.5104 56.1863 23.0599 54.9115 24.3359C53.6367 25.612 52.0887 26.25 50.2676 26.25ZM19.6724 56.875C17.8513 56.875 16.3033 56.237 15.0285 54.9609C13.7537 53.6849 13.1163 52.1354 13.1163 50.3125C13.1163 48.4896 13.7537 46.9401 15.0285 45.6641C16.3033 44.388 17.8513 43.75 19.6724 43.75C21.4935 43.75 23.0415 44.388 24.3163 45.6641C25.5911 46.9401 26.2285 48.4896 26.2285 50.3125C26.2285 52.1354 25.5911 53.6849 24.3163 54.9609C23.0415 56.237 21.4935 56.875 19.6724 56.875ZM19.6724 26.25C17.8513 26.25 16.3033 25.612 15.0285 24.3359C13.7537 23.0599 13.1163 21.5104 13.1163 19.6875C13.1163 17.8646 13.7537 16.3151 15.0285 15.0391C16.3033 13.763 17.8513 13.125 19.6724 13.125C21.4935 13.125 23.0415 13.763 24.3163 15.0391C25.5911 16.3151 26.2285 17.8646 26.2285 19.6875C26.2285 21.5104 25.5911 23.0599 24.3163 24.3359C23.0415 25.612 21.4935 26.25 19.6724 26.25Z" fill="#029F98"/>
</svg>
