<svg width="98" height="98" viewBox="0 0 98 98" fill="none" xmlns="http://www.w3.org/2000/svg">
<circle cx="36.5488" cy="60.5227" r="25.8439" transform="rotate(45 36.5488 60.5227)" fill="#029F98"/>
<circle cx="36.5488" cy="60.5224" r="18.3974" transform="rotate(45 36.5488 60.5224)" fill="#F2F3F3"/>
<path fill-rule="evenodd" clip-rule="evenodd" d="M57.5708 45.3363C63.5299 36.7094 75.5244 25.2672 80.8093 20.5982C80.899 20.5189 80.9033 20.3804 80.8186 20.2958L76.9308 16.408C76.8462 16.3233 76.7077 16.3276 76.6284 16.4173C71.9595 21.7022 60.5172 33.6967 51.8904 39.6558L51.8655 39.631L51.571 39.9254L57.3012 45.6555L57.5956 45.3611L57.5708 45.3363ZM77.6273 19.7546C77.0286 19.1558 76.0579 19.1559 75.4592 19.7546L72.3274 22.8864C71.7287 23.4851 71.7287 24.4558 72.3274 25.0545C72.9261 25.6532 73.8968 25.6532 74.4955 25.0545L77.6273 21.9227C78.226 21.324 78.226 20.3533 77.6273 19.7546Z" fill="#029F98"/>
</svg>
