<svg width="50" height="68" viewBox="0 0 50 68" fill="none" xmlns="http://www.w3.org/2000/svg">
<path fill-rule="evenodd" clip-rule="evenodd" d="M0.0124072 3.2699C-0.146242 1.51364 1.23683 0 3.00024 0H46.4547C48.2181 0 49.6011 1.51364 49.4425 3.2699L48.9249 9H29V11H48.7442L48.2022 17H29V19H48.0215L47.4795 25H29V27H47.2989L46.7569 33H29V35H46.5762L46.0342 41H29V43H45.8535L45.3115 49H29V51H45.1309L44.5889 57H29V59H44.4082L44.18 61.5263C43.8187 64.9013 41.4011 67.5 38.6221 67.5H10.8328C7.97047 67.5 5.63616 64.9013 5.2749 61.5263L0.0124072 3.2699Z" fill="#029F98"/>
</svg>
