<svg width="24" height="24" viewBox="0 0 24 24" fill="none" xmlns="http://www.w3.org/2000/svg">
<path d="M19.9999 4H3.99994C2.89994 4 1.99994 4.9 1.99994 6V18C1.99994 19.1 2.89994 20 3.99994 20H19.9999C21.0999 20 21.9999 19.1 21.9999 18V6C21.9999 4.9 21.0999 4 19.9999 4ZM3.99994 6H13.9999V18H3.99994V6ZM19.9999 18H15.9999V6H19.9999V18ZM18.9999 9H16.9999V7H18.9999V9ZM17.9999 13C17.4499 13 16.9999 12.55 16.9999 12C16.9999 11.45 17.4499 11 17.9999 11C18.5499 11 18.9999 11.45 18.9999 12C18.9999 12.55 18.5499 13 17.9999 13ZM17.9999 17C17.4499 17 16.9999 16.55 16.9999 16C16.9999 15.45 17.4499 15 17.9999 15C18.5499 15 18.9999 15.45 18.9999 16C18.9999 16.55 18.5499 17 17.9999 17ZM10.2499 16C9.45994 16 8.87994 15.62 8.45994 15.34C8.12994 15.12 7.93994 15 7.74994 15C7.37994 15 6.94994 15.41 6.79994 15.61L5.37994 14.19C5.72994 13.79 6.58994 13 7.74994 13C8.54994 13 9.13994 13.39 9.55994 13.67C9.86994 13.88 10.0699 14 10.2499 14C10.6199 14 11.0499 13.59 11.1999 13.39L12.6199 14.81C12.2599 15.21 11.4099 16 10.2499 16ZM10.2499 11C9.45994 11 8.87994 10.62 8.45994 10.34C8.12994 10.12 7.93994 10 7.74994 10C7.37994 10 6.94994 10.41 6.79994 10.61L5.36994 9.19C5.72994 8.79 6.58994 8 7.74994 8C8.54994 8 9.13994 8.39 9.55994 8.67C9.86994 8.88 10.0699 9 10.2499 9C10.6199 9 11.0499 8.59 11.1999 8.39L12.6199 9.81C12.2599 10.21 11.4099 11 10.2499 11Z" fill="black"/>
</svg>
