<svg width="24" height="24" viewBox="0 0 24 24" fill="none" xmlns="http://www.w3.org/2000/svg">
<path d="M20.75 22H3.25C2.91146 22 2.61849 21.8763 2.37109 21.6289C2.1237 21.3815 2 21.0885 2 20.75V3.25C2 2.91146 2.1237 2.61849 2.37109 2.37109C2.61849 2.1237 2.91146 2 3.25 2H20.75C21.0885 2 21.3815 2.12044 21.6289 2.36133C21.8763 2.60221 22 2.89844 22 3.25V20.75C22 21.1016 21.8763 21.3978 21.6289 21.6387C21.3815 21.8796 21.0885 22 20.75 22ZM7.625 4.5C6.76562 4.5 6.02995 4.80599 5.41797 5.41797C4.80599 6.02995 4.5 6.76562 4.5 7.625C4.5 8.48438 4.80599 9.22005 5.41797 9.83203C6.02995 10.444 6.76562 10.75 7.625 10.75C8.48438 10.75 9.22005 10.444 9.83203 9.83203C10.444 9.22005 10.75 8.48438 10.75 7.625C10.75 6.76562 10.444 6.02995 9.83203 5.41797C9.22005 4.80599 8.48438 4.5 7.625 4.5ZM7.625 13.25C6.76562 13.25 6.02995 13.556 5.41797 14.168C4.80599 14.7799 4.5 15.5156 4.5 16.375C4.5 17.2344 4.80599 17.9701 5.41797 18.582C6.02995 19.194 6.76562 19.5 7.625 19.5C8.48438 19.5 9.22005 19.194 9.83203 18.582C10.444 17.9701 10.75 17.2344 10.75 16.375C10.75 15.5156 10.444 14.7799 9.83203 14.168C9.22005 13.556 8.48438 13.25 7.625 13.25ZM16.375 4.5C15.5156 4.5 14.7799 4.80599 14.168 5.41797C13.556 6.02995 13.25 6.76562 13.25 7.625C13.25 8.48438 13.556 9.22005 14.168 9.83203C14.7799 10.444 15.5156 10.75 16.375 10.75C17.2344 10.75 17.9701 10.444 18.582 9.83203C19.194 9.22005 19.5 8.48438 19.5 7.625C19.5 6.76562 19.194 6.02995 18.582 5.41797C17.9701 4.80599 17.2344 4.5 16.375 4.5ZM16.375 13.25C15.5156 13.25 14.7799 13.556 14.168 14.168C13.556 14.7799 13.25 15.5156 13.25 16.375C13.25 17.2344 13.556 17.9701 14.168 18.582C14.7799 19.194 15.5156 19.5 16.375 19.5C17.2344 19.5 17.9701 19.194 18.582 18.582C19.194 17.9701 19.5 17.2344 19.5 16.375C19.5 15.5156 19.194 14.7799 18.582 14.168C17.9701 13.556 17.2344 13.25 16.375 13.25ZM16.375 18.25C15.8542 18.25 15.4115 18.0677 15.0469 17.7031C14.6823 17.3385 14.5 16.8958 14.5 16.375C14.5 15.8542 14.6823 15.4115 15.0469 15.0469C15.4115 14.6823 15.8542 14.5 16.375 14.5C16.8958 14.5 17.3385 14.6823 17.7031 15.0469C18.0677 15.4115 18.25 15.8542 18.25 16.375C18.25 16.8958 18.0677 17.3385 17.7031 17.7031C17.3385 18.0677 16.8958 18.25 16.375 18.25ZM16.375 9.5C15.8542 9.5 15.4115 9.31771 15.0469 8.95312C14.6823 8.58854 14.5 8.14583 14.5 7.625C14.5 7.10417 14.6823 6.66146 15.0469 6.29688C15.4115 5.93229 15.8542 5.75 16.375 5.75C16.8958 5.75 17.3385 5.93229 17.7031 6.29688C18.0677 6.66146 18.25 7.10417 18.25 7.625C18.25 8.14583 18.0677 8.58854 17.7031 8.95312C17.3385 9.31771 16.8958 9.5 16.375 9.5ZM7.625 18.25C7.10417 18.25 6.66146 18.0677 6.29688 17.7031C5.93229 17.3385 5.75 16.8958 5.75 16.375C5.75 15.8542 5.93229 15.4115 6.29688 15.0469C6.66146 14.6823 7.10417 14.5 7.625 14.5C8.14583 14.5 8.58854 14.6823 8.95312 15.0469C9.31771 15.4115 9.5 15.8542 9.5 16.375C9.5 16.8958 9.31771 17.3385 8.95312 17.7031C8.58854 18.0677 8.14583 18.25 7.625 18.25ZM7.625 9.5C7.10417 9.5 6.66146 9.31771 6.29688 8.95312C5.93229 8.58854 5.75 8.14583 5.75 7.625C5.75 7.10417 5.93229 6.66146 6.29688 6.29688C6.66146 5.93229 7.10417 5.75 7.625 5.75C8.14583 5.75 8.58854 5.93229 8.95312 6.29688C9.31771 6.66146 9.5 7.10417 9.5 7.625C9.5 8.14583 9.31771 8.58854 8.95312 8.95312C8.58854 9.31771 8.14583 9.5 7.625 9.5Z" fill="black"/>
</svg>
