<svg width="25" height="24" viewBox="0 0 25 24" fill="none" xmlns="http://www.w3.org/2000/svg">
<path d="M4.05976 5C3.52141 5 3.00511 5.21071 2.62444 5.58579C2.24377 5.96086 2.02991 6.46957 2.02991 7V17C2.02991 17.5304 2.24377 18.0391 2.62444 18.4142C3.00511 18.7893 3.52141 19 4.05976 19H20.2986C20.8369 19 21.3532 18.7893 21.7339 18.4142C22.1146 18.0391 22.3284 17.5304 22.3284 17V7C22.3284 6.46957 22.1146 5.96086 21.7339 5.58579C21.3532 5.21071 20.8369 5 20.2986 5H4.05976ZM4.05976 7H16.2389V17H4.05976V7ZM19.2836 7C19.5528 7 19.811 7.10536 20.0013 7.29289C20.1916 7.48043 20.2986 7.73478 20.2986 8C20.2986 8.26522 20.1916 8.51957 20.0013 8.70711C19.811 8.89464 19.5528 9 19.2836 9C19.0145 9 18.7563 8.89464 18.566 8.70711C18.3756 8.51957 18.2687 8.26522 18.2687 8C18.2687 7.73478 18.3756 7.48043 18.566 7.29289C18.7563 7.10536 19.0145 7 19.2836 7ZM6.08961 9V11H14.209V9H6.08961ZM19.2836 11C19.5528 11 19.811 11.1054 20.0013 11.2929C20.1916 11.4804 20.2986 11.7348 20.2986 12C20.2986 12.2652 20.1916 12.5196 20.0013 12.7071C19.811 12.8946 19.5528 13 19.2836 13C19.0145 13 18.7563 12.8946 18.566 12.7071C18.3756 12.5196 18.2687 12.2652 18.2687 12C18.2687 11.7348 18.3756 11.4804 18.566 11.2929C18.7563 11.1054 19.0145 11 19.2836 11Z" fill="black"/>
</svg>
